<svg width="27" height="27" viewBox="0 0 27 27" fill="none" xmlns="http://www.w3.org/2000/svg">
<path d="M20.25 3.375H6.75C5.85489 3.375 4.99645 3.73058 4.36351 4.36351C3.73058 4.99645 3.375 5.85489 3.375 6.75V20.25C3.375 21.1451 3.73058 22.0036 4.36351 22.6365C4.99645 23.2694 5.85489 23.625 6.75 23.625H20.25C21.1451 23.625 22.0036 23.2694 22.6365 22.6365C23.2694 22.0036 23.625 21.1451 23.625 20.25V6.75C23.625 5.85489 23.2694 4.99645 22.6365 4.36351C22.0036 3.73058 21.1451 3.375 20.25 3.375ZM13.5 6.75C13.7225 6.75 13.94 6.81598 14.125 6.9396C14.31 7.06321 14.4542 7.23891 14.5394 7.44448C14.6245 7.65005 14.6468 7.87625 14.6034 8.09448C14.56 8.31271 14.4528 8.51316 14.2955 8.6705C14.1382 8.82783 13.9377 8.93498 13.7195 8.97838C13.5012 9.02179 13.275 8.99951 13.0695 8.91436C12.8639 8.82922 12.6882 8.68502 12.5646 8.50002C12.441 8.31501 12.375 8.0975 12.375 7.875C12.375 7.57663 12.4935 7.29048 12.7045 7.0795C12.9155 6.86853 13.2016 6.75 13.5 6.75ZM9 6.75C9.2225 6.75 9.44001 6.81598 9.62502 6.9396C9.81002 7.06321 9.95422 7.23891 10.0394 7.44448C10.1245 7.65005 10.1468 7.87625 10.1034 8.09448C10.06 8.31271 9.95283 8.51316 9.7955 8.6705C9.63816 8.82783 9.43771 8.93498 9.21948 8.97838C9.00125 9.02179 8.77505 8.99951 8.56948 8.91436C8.36391 8.82922 8.18821 8.68502 8.0646 8.50002C7.94098 8.31501 7.875 8.0975 7.875 7.875C7.875 7.57663 7.99353 7.29048 8.2045 7.0795C8.41548 6.86853 8.70163 6.75 9 6.75ZM21.375 20.25C21.375 20.5484 21.2565 20.8345 21.0455 21.0455C20.8345 21.2565 20.5484 21.375 20.25 21.375H6.75C6.45163 21.375 6.16548 21.2565 5.9545 21.0455C5.74353 20.8345 5.625 20.5484 5.625 20.25V12.375H21.375V20.25Z" fill="#231F20"/>
</svg>
