<svg width="33" height="33" viewBox="0 0 33 33" fill="none" xmlns="http://www.w3.org/2000/svg">
<path d="M25.0005 12.086C24.1631 12.0883 23.3469 12.3496 22.6638 12.8341C21.9808 13.3185 21.4643 14.0024 21.1851 14.7919H3.35297C2.99414 14.7919 2.65001 14.9345 2.39628 15.1882C2.14254 15.4419 2 15.7861 2 16.1449C2 16.5037 2.14254 16.8479 2.39628 17.1016C2.65001 17.3553 2.99414 17.4979 3.35297 17.4979H21.1851C21.4333 18.1999 21.8699 18.8201 22.447 19.2907C23.0241 19.7612 23.7195 20.0639 24.4571 20.1657C25.1947 20.2675 25.9461 20.1644 26.6291 19.8677C27.3121 19.571 27.9002 19.0922 28.3293 18.4836C28.7583 17.8751 29.0117 17.1602 29.0617 16.4173C29.1116 15.6743 28.9563 14.932 28.6126 14.2714C28.2689 13.6109 27.7501 13.0576 27.113 12.6721C26.476 12.2867 25.7451 12.0839 25.0005 12.086ZM25.0005 17.4979C24.7329 17.4979 24.4713 17.4185 24.2488 17.2699C24.0263 17.1212 23.8529 16.9099 23.7505 16.6627C23.6481 16.4154 23.6213 16.1434 23.6735 15.8809C23.7257 15.6185 23.8546 15.3774 24.0438 15.1882C24.233 14.999 24.4741 14.8701 24.7366 14.8179C24.999 14.7657 25.271 14.7925 25.5183 14.8949C25.7655 14.9973 25.9768 15.1707 26.1255 15.3932C26.2741 15.6157 26.3535 15.8773 26.3535 16.1449C26.3535 16.5037 26.2109 16.8479 25.9572 17.1016C25.7035 17.3553 25.3593 17.4979 25.0005 17.4979Z" fill="#231F20"/>
<path d="M3.35297 9.38006H4.94948C5.23388 10.1636 5.75264 10.8406 6.43526 11.3191C7.11789 11.7975 7.93127 12.0542 8.76486 12.0542C9.59845 12.0542 10.4118 11.7975 11.0945 11.3191C11.7771 10.8406 12.2958 10.1636 12.5802 9.38006H27.7065C28.0653 9.38006 28.4094 9.23751 28.6632 8.98378C28.9169 8.73005 29.0594 8.38592 29.0594 8.02709C29.0594 7.66826 28.9169 7.32412 28.6632 7.07039C28.4094 6.81666 28.0653 6.67412 27.7065 6.67412H12.5802C12.2958 5.89054 11.7771 5.21353 11.0945 4.73509C10.4118 4.25666 9.59845 4 8.76486 4C7.93127 4 7.11789 4.25666 6.43526 4.73509C5.75264 5.21353 5.23388 5.89054 4.94948 6.67412H3.35297C2.99414 6.67412 2.65001 6.81666 2.39628 7.07039C2.14254 7.32412 2 7.66826 2 8.02709C2 8.38592 2.14254 8.73005 2.39628 8.98378C2.65001 9.23751 2.99414 9.38006 3.35297 9.38006ZM8.76486 6.67412C9.03245 6.67412 9.29403 6.75347 9.51653 6.90213C9.73902 7.0508 9.91244 7.2621 10.0148 7.50933C10.1172 7.75655 10.144 8.02859 10.0918 8.29104C10.0396 8.55349 9.91077 8.79457 9.72155 8.98378C9.53234 9.173 9.29126 9.30186 9.02881 9.35406C8.76636 9.40627 8.49432 9.37947 8.2471 9.27707C7.99987 9.17467 7.78857 9.00125 7.6399 8.77876C7.49124 8.55626 7.41189 8.29468 7.41189 8.02709C7.41189 7.66826 7.55443 7.32412 7.80816 7.07039C8.06189 6.81666 8.40603 6.67412 8.76486 6.67412Z" fill="#231F20"/>
<path d="M27.7065 22.9098H17.9921C17.7077 22.1262 17.189 21.4492 16.5063 20.9708C15.8237 20.4923 15.0103 20.2357 14.1767 20.2357C13.3432 20.2357 12.5298 20.4923 11.8471 20.9708C11.1645 21.4492 10.6458 22.1262 10.3614 22.9098H3.35297C2.99414 22.9098 2.65001 23.0523 2.39628 23.306C2.14254 23.5598 2 23.9039 2 24.2627C2 24.6216 2.14254 24.9657 2.39628 25.2194C2.65001 25.4732 2.99414 25.6157 3.35297 25.6157H10.3614C10.6458 26.3993 11.1645 27.0763 11.8471 27.5547C12.5298 28.0332 13.3432 28.2898 14.1767 28.2898C15.0103 28.2898 15.8237 28.0332 16.5063 27.5547C17.189 27.0763 17.7077 26.3993 17.9921 25.6157H27.7065C28.0653 25.6157 28.4094 25.4732 28.6632 25.2194C28.9169 24.9657 29.0594 24.6216 29.0594 24.2627C29.0594 23.9039 28.9169 23.5598 28.6632 23.306C28.4094 23.0523 28.0653 22.9098 27.7065 22.9098ZM14.1767 25.6157C13.9092 25.6157 13.6476 25.5364 13.4251 25.3877C13.2026 25.239 13.0292 25.0277 12.9268 24.7805C12.8244 24.5333 12.7976 24.2612 12.8498 23.9988C12.902 23.7363 13.0308 23.4953 13.22 23.306C13.4093 23.1168 13.6503 22.988 13.9128 22.9358C14.1752 22.8836 14.4473 22.9104 14.6945 23.0128C14.9417 23.1152 15.153 23.2886 15.3017 23.5111C15.4504 23.7336 15.5297 23.9952 15.5297 24.2627C15.5297 24.6216 15.3872 24.9657 15.1334 25.2194C14.8797 25.4732 14.5356 25.6157 14.1767 25.6157Z" fill="#231F20"/>
</svg>
