<svg width="33" height="33" viewBox="0 0 33 33" fill="none" xmlns="http://www.w3.org/2000/svg">
<path d="M25.7064 12.1767C24.869 12.179 24.0528 12.4403 23.3698 12.9248C22.6867 13.4092 22.1702 14.0931 21.8911 14.8826H4.0589C3.70007 14.8826 3.35594 15.0252 3.10221 15.2789C2.84848 15.5326 2.70593 15.8768 2.70593 16.2356C2.70593 16.5944 2.84848 16.9386 3.10221 17.1923C3.35594 17.446 3.70007 17.5886 4.0589 17.5886H21.8911C22.1393 18.2906 22.5758 18.9108 23.1529 19.3814C23.73 19.8519 24.4254 20.1546 25.163 20.2564C25.9007 20.3582 26.6521 20.2551 27.335 19.9584C28.018 19.6617 28.6062 19.1829 29.0352 18.5743C29.4643 17.9658 29.7176 17.2509 29.7676 16.5079C29.8176 15.765 29.6622 15.0227 29.3185 14.3621C28.9748 13.7016 28.4561 13.1483 27.819 12.7628C27.1819 12.3774 26.4511 12.1746 25.7064 12.1767ZM25.7064 17.5886C25.4389 17.5886 25.1773 17.5092 24.9548 17.3606C24.7323 17.2119 24.5589 17.0006 24.4565 16.7534C24.3541 16.5061 24.3273 16.2341 24.3795 15.9716C24.4317 15.7092 24.5605 15.4681 24.7497 15.2789C24.939 15.0897 25.18 14.9608 25.4425 14.9086C25.7049 14.8564 25.977 14.8832 26.2242 14.9856C26.4714 15.088 26.6827 15.2614 26.8314 15.4839C26.9801 15.7064 27.0594 15.968 27.0594 16.2356C27.0594 16.5944 26.9169 16.9386 26.6631 17.1923C26.4094 17.446 26.0653 17.5886 25.7064 17.5886Z" fill="#231F20"/>
<path d="M4.0589 9.47076H5.65541C5.93981 10.2543 6.45857 10.9313 7.1412 11.4098C7.82382 11.8882 8.6372 12.1449 9.47079 12.1449C10.3044 12.1449 11.1178 11.8882 11.8004 11.4098C12.483 10.9313 13.0018 10.2543 13.2862 9.47076H28.4124C28.7712 9.47076 29.1154 9.32821 29.3691 9.07448C29.6228 8.82075 29.7654 8.47662 29.7654 8.11779C29.7654 7.75896 29.6228 7.41482 29.3691 7.16109C29.1154 6.90736 28.7712 6.76481 28.4124 6.76481H13.2862C13.0018 5.98124 12.483 5.30423 11.8004 4.82579C11.1178 4.34736 10.3044 4.0907 9.47079 4.0907C8.6372 4.0907 7.82382 4.34736 7.1412 4.82579C6.45857 5.30423 5.93981 5.98124 5.65541 6.76481H4.0589C3.70007 6.76481 3.35594 6.90736 3.10221 7.16109C2.84848 7.41482 2.70593 7.75896 2.70593 8.11779C2.70593 8.47662 2.84848 8.82075 3.10221 9.07448C3.35594 9.32821 3.70007 9.47076 4.0589 9.47076ZM9.47079 6.76481C9.73838 6.76481 9.99997 6.84417 10.2225 6.99283C10.445 7.1415 10.6184 7.3528 10.7208 7.60003C10.8232 7.84725 10.85 8.11929 10.7978 8.38174C10.7456 8.64419 10.6167 8.88526 10.4275 9.07448C10.2383 9.2637 9.99719 9.39256 9.73474 9.44476C9.47229 9.49696 9.20025 9.47017 8.95303 9.36777C8.70581 9.26537 8.4945 9.09195 8.34584 8.86946C8.19717 8.64696 8.11782 8.38538 8.11782 8.11779C8.11782 7.75896 8.26036 7.41482 8.51409 7.16109C8.76783 6.90736 9.11196 6.76481 9.47079 6.76481Z" fill="#231F20"/>
<path d="M28.4124 23.0005H18.6981C18.4137 22.2169 17.8949 21.5399 17.2123 21.0614C16.5296 20.583 15.7163 20.3263 14.8827 20.3263C14.0491 20.3263 13.2357 20.583 12.5531 21.0614C11.8705 21.5399 11.3517 22.2169 11.0673 23.0005H4.0589C3.70007 23.0005 3.35594 23.143 3.10221 23.3967C2.84848 23.6505 2.70593 23.9946 2.70593 24.3534C2.70593 24.7123 2.84848 25.0564 3.10221 25.3101C3.35594 25.5639 3.70007 25.7064 4.0589 25.7064H11.0673C11.3517 26.49 11.8705 27.167 12.5531 27.6454C13.2357 28.1239 14.0491 28.3805 14.8827 28.3805C15.7163 28.3805 16.5296 28.1239 17.2123 27.6454C17.8949 27.167 18.4137 26.49 18.6981 25.7064H28.4124C28.7712 25.7064 29.1154 25.5639 29.3691 25.3101C29.6228 25.0564 29.7654 24.7123 29.7654 24.3534C29.7654 23.9946 29.6228 23.6505 29.3691 23.3967C29.1154 23.143 28.7712 23.0005 28.4124 23.0005ZM14.8827 25.7064C14.6151 25.7064 14.3535 25.627 14.131 25.4784C13.9085 25.3297 13.7351 25.1184 13.6327 24.8712C13.5303 24.624 13.5035 24.3519 13.5557 24.0895C13.6079 23.827 13.7368 23.5859 13.926 23.3967C14.1152 23.2075 14.3563 23.0787 14.6187 23.0265C14.8812 22.9742 15.1532 23.001 15.4004 23.1034C15.6477 23.2058 15.859 23.3793 16.0076 23.6018C16.1563 23.8243 16.2356 24.0858 16.2356 24.3534C16.2356 24.7123 16.0931 25.0564 15.8394 25.3101C15.5856 25.5639 15.2415 25.7064 14.8827 25.7064Z" fill="#231F20"/>
</svg>
